<svg xmlns="http://www.w3.org/2000/svg" width="496.59" height="412.01" viewBox="0 0 496.59 412.01"><title>Asset 15</title><path d="M490.72,112.55,407.34,31a102.79,102.79,0,0,0-72.2-29.5H161.52A102.62,102.62,0,0,0,89.32,31L5.84,112.55a14.45,14.45,0,0,0-.58,20l54.56,59.86a14.57,14.57,0,0,0,19.57,1.74L113.23,168l3.47,228.27a14.46,14.46,0,0,0,14.46,14.26H365.6a14.47,14.47,0,0,0,14.46-14.26L383.53,168l33.83,26.22a14.48,14.48,0,0,0,19.57-1.74l54.56-59.86a14.65,14.65,0,0,0-.77-20" fill="#195fa5" fill-rule="evenodd"/><path d="M490.72,112.55,407.34,31a102.79,102.79,0,0,0-72.2-29.5H161.52A102.62,102.62,0,0,0,89.32,31L5.84,112.55a14.45,14.45,0,0,0-.58,20l54.56,59.86a14.57,14.57,0,0,0,19.57,1.74L113.23,168l3.47,228.27a14.46,14.46,0,0,0,14.46,14.26H365.6a14.47,14.47,0,0,0,14.46-14.26L383.53,168l33.83,26.22a14.48,14.48,0,0,0,19.57-1.74l54.56-59.86a14.65,14.65,0,0,0-.77-20" fill="none" stroke="#fff" stroke-miterlimit="10" stroke-width="3" fill-rule="evenodd"/><polygon points="187.42 408.09 225.39 408.09 225.39 1.5 187.42 1.82 187.42 408.09" fill="#fff" fill-rule="evenodd"/><path d="M127.13,408.09H147V4.49l-6.2,1.1-6.36,1.55L128.54,9,123,11v393A4.17,4.17,0,0,0,127.13,408.09Z" fill="#fff" fill-rule="evenodd"/><path d="M370.05,408.09H350.18V4.49l5.56,1.09,6.54,1.58L368.05,9l6.17,2.33V403.92A4.17,4.17,0,0,1,370.05,408.09Z" fill="#fff" fill-rule="evenodd"/><polygon points="271.44 408.09 309.41 408.09 309.41 1.82 271.44 1.5 271.44 408.09" fill="#fff" fill-rule="evenodd"/><path d="M223.44,89,207.67,217.16h-19l13.7-110.48H177.12L185.75,89Z" stroke="#fff" stroke-miterlimit="10" stroke-width="2"/><path d="M323.47,142.7a121.73,121.73,0,0,1-4.73,33.12q-4.74,16.68-12.2,26.65Q294,219,274.58,219q-18.84,0-29.8-15.11T233.9,162.71q0-32,14.45-53.79Q263,87.08,284,87.09q18,0,28.72,15.1T323.47,142.7ZM305,141.79q0-17.76-5.56-27.56-5.56-10-15.36-10-13.37,0-22.58,17.59T252.33,165q0,17.26,5.65,27.14,5.72,9.72,15.68,9.72,12.46,0,20.84-14.11,4.65-7.89,7.47-20.76A112.87,112.87,0,0,0,305,141.79Z" stroke="#fff" stroke-miterlimit="10" stroke-width="2"/></svg>