<svg xmlns="http://www.w3.org/2000/svg" xmlns:xlink="http://www.w3.org/1999/xlink" width="501.08" height="413.01" viewBox="0 0 501.08 413.01"><defs><clipPath id="a" transform="translate(0 -13.44)"><path d="M416.23,203.38l3.5,2.38c3.7,2.54,8.34,4.31,12.66,3.1h0a15.24,15.24,0,0,0,7.15-4.42l51-56.25a19.16,19.16,0,0,0,4.84-10.57h0a11.69,11.69,0,0,0-3.19-9.53l-3.89-4Z" fill="none" clip-rule="evenodd"/></clipPath><clipPath id="b" transform="translate(0 -13.44)"><rect x="0.95" width="497" height="426" fill="none"/></clipPath><clipPath id="c" transform="translate(0 -13.44)"><path d="M84.85,203.38l-3.49,2.38c-3.71,2.54-8.34,4.31-12.67,3.1h0a15.24,15.24,0,0,1-7.15-4.42l-51-56.25c-2.66-2.94-6.82-7.84-7.3-11.78h0c-.43-3.5,3.21-5.78,5.65-8.32l3.89-4Z" fill="none" clip-rule="evenodd"/></clipPath><clipPath id="d" transform="translate(0 -13.44)"><rect x="3.13" width="497" height="426" fill="none"/></clipPath></defs><title>camisa-bahia</title><path d="M492.43,126.49,409,44.94a102.76,102.76,0,0,0-72.2-29.5H163.23A102.6,102.6,0,0,0,91,44.94L7.55,126.49a14.44,14.44,0,0,0-.58,20L61.53,206.4a14.57,14.57,0,0,0,19.57,1.74l33.83-26.22,3.47,228.27a14.47,14.47,0,0,0,14.46,14.26H367.3a14.46,14.46,0,0,0,14.46-14.26l3.47-228.27,33.84,26.22a14.48,14.48,0,0,0,19.57-1.74l54.56-59.86a14.65,14.65,0,0,0-.77-20" transform="translate(0 -13.44)" fill="#bf2525" fill-rule="evenodd"/><path d="M492.43,126.49,409,44.94a102.76,102.76,0,0,0-72.2-29.5H163.23A102.6,102.6,0,0,0,91,44.94L7.55,126.49a14.44,14.44,0,0,0-.58,20L61.53,206.4a14.57,14.57,0,0,0,19.57,1.74l33.83-26.22,3.47,228.27a14.47,14.47,0,0,0,14.46,14.26H367.3a14.46,14.46,0,0,0,14.46-14.26l3.47-228.27,33.84,26.22a14.48,14.48,0,0,0,19.57-1.74l54.56-59.86a14.65,14.65,0,0,0-.77-20" transform="translate(0 -13.44)" fill="none" stroke="#fff" stroke-miterlimit="10" stroke-width="4" fill-rule="evenodd"/><g clip-path="url(#a)"><g clip-path="url(#b)"><rect x="411.23" y="106.66" width="89.85" height="95.66" fill="#fff"/></g></g><path d="M366.2,424.41H319.82V18.84a.53.53,0,0,1,.94-.33l23,29.64C364.61,75,385.54,98.36,385.54,132.4l-4.61,281.44C380.93,416.16,377.16,425.12,366.2,424.41Z" transform="translate(0 -13.44)" fill="#1a8add" stroke="#fff" stroke-miterlimit="10" stroke-width="4" fill-rule="evenodd"/><rect x="178.71" y="2" width="70.55" height="409.01" fill="#1a8add" stroke="#fff" stroke-miterlimit="10" stroke-width="4"/><rect x="249.26" y="2" width="70.55" height="409.01" fill="#bf2525" stroke="#fff" stroke-miterlimit="10" stroke-width="4"/><path d="M15.08,153.23S-2.1,137.14,12.75,124.1c4.26-6.85,84-81.77,84-81.77s26.6-29.22,81.93-24.89l-65,163L81.36,205.76s-10.52,8.93-30.67-13.28C45.22,184.65,15.08,153.23,15.08,153.23Z" transform="translate(0 -13.44)" fill="#1a8add" fill-rule="evenodd"/><g clip-path="url(#c)"><g clip-path="url(#d)"><rect y="106.66" width="89.85" height="95.66" fill="#fff"/></g></g><path d="M134.13,424.41h46.38V18.84a.53.53,0,0,0-.94-.33l-23,29.64C135.71,75,114.79,98.36,114.79,132.4l4.6,281.44C119.39,416.16,123.16,425.12,134.13,424.41Z" transform="translate(0 -13.44)" fill="#bf2525" stroke="#fff" stroke-miterlimit="10" stroke-width="4" fill-rule="evenodd"/><path d="M260.91,174.91q-11.31,6.14-21,6.13a28.3,28.3,0,0,1-15.69-4.64q-14.53-9.37-14.54-29.71V112.78a18.82,18.82,0,0,1,6.48-14.37,21.81,21.81,0,0,1,15.25-5.87h37.15a21.93,21.93,0,0,1,15.34,5.87,18.82,18.82,0,0,1,6.48,14.37V220.56a18.82,18.82,0,0,1-6.48,14.37,21.89,21.89,0,0,1-15.34,5.88H231.38a21.78,21.78,0,0,1-15.25-5.88,18.82,18.82,0,0,1-6.48-14.37V190.68h29.44v22.7h21.82Zm0-54.94H239.09v26.72q0,5.44,2.54,7.63c1.58,1.28,4.35,1.93,8.33,1.93s6.69-.65,8.32-1.93q2.63-2.19,2.63-7.63Z" transform="translate(0 -13.44)" fill="#fff" stroke="#1a8add" stroke-miterlimit="10" stroke-width="5"/></svg>