<svg xmlns="http://www.w3.org/2000/svg" xmlns:xlink="http://www.w3.org/1999/xlink" width="503.01" height="426" viewBox="0 0 503.01 426"><defs><clipPath id="a"><path d="M9.14,128.32,12,125.47l72.6,79-5.28,3.88a7.39,7.39,0,0,1-3.27,1.19h0A14.17,14.17,0,0,1,64.9,206c-.85-.78-1.69-1.64-2.57-2.58l-52.64-57c-1.94-2.14-3.46-4.32-3.81-7.19h0A14,14,0,0,1,9.14,128.32Z" fill="none"/></clipPath><clipPath id="b"><path d="M9.14,128.32,12,125.47l72.6,79-5.28,3.88a7.39,7.39,0,0,1-3.27,1.19h0A14.17,14.17,0,0,1,64.9,206c-.85-.78-1.69-1.64-2.57-2.58l-52.64-57c-1.94-2.14-3.46-4.32-3.81-7.19h0A14,14,0,0,1,9.14,128.32Z" fill="#21d64c" clip-rule="evenodd"/></clipPath><clipPath id="c"><rect x="3.13" width="497" height="426" fill="#21d64c"/></clipPath><clipPath id="e"><path d="M493.88,128.32,491,125.47l-72.59,79,5.27,3.88a7.39,7.39,0,0,0,3.27,1.19h0A14.16,14.16,0,0,0,438.11,206c.85-.78,1.69-1.64,2.57-2.58l52.64-57c1.95-2.14,3.47-4.32,3.82-7.19h0A14,14,0,0,0,493.88,128.32Z" fill="none"/></clipPath><clipPath id="f"><path d="M493.88,128.32,491,125.47l-72.59,79,5.27,3.88a7.39,7.39,0,0,0,3.27,1.19h0A14.16,14.16,0,0,0,438.11,206c.85-.78,1.69-1.64,2.57-2.58l52.64-57c1.95-2.14,3.47-4.32,3.82-7.19h0A14,14,0,0,0,493.88,128.32Z" fill="#21d64c" clip-rule="evenodd"/></clipPath><clipPath id="g"><rect x="2.88" width="497" height="426" fill="#21d64c"/></clipPath></defs><title>Asset 9</title><path d="M493.93,126.26,410.54,44.7a102.75,102.75,0,0,0-72.2-29.49H164.73A102.57,102.57,0,0,0,92.53,44.7L9.05,126.26a14.44,14.44,0,0,0-.58,20L63,206.17A14.57,14.57,0,0,0,82.6,207.9l33.83-26.22L119.9,410a14.47,14.47,0,0,0,14.46,14.27H368.8A14.46,14.46,0,0,0,383.26,410l3.47-228.27,33.84,26.22a14.47,14.47,0,0,0,19.57-1.73l54.56-59.86a14.65,14.65,0,0,0-.77-20" fill="#195930" fill-rule="evenodd"/><path d="M493.93,126.26,410.54,44.7a102.75,102.75,0,0,0-72.2-29.49H164.73A102.57,102.57,0,0,0,92.53,44.7L9.05,126.26a14.44,14.44,0,0,0-.58,20L63,206.17A14.57,14.57,0,0,0,82.6,207.9l33.83-26.22L119.9,410a14.47,14.47,0,0,0,14.46,14.27H368.8A14.46,14.46,0,0,0,383.26,410l3.47-228.27,33.84,26.22a14.47,14.47,0,0,0,19.57-1.73l54.56-59.86a14.65,14.65,0,0,0-.77-20" fill="none" stroke="#2d824f" stroke-miterlimit="10" stroke-width="2" fill-rule="evenodd"/><path d="M9.14,128.32,12,125.47l72.6,79-5.28,3.88a7.39,7.39,0,0,1-3.27,1.19h0A14.17,14.17,0,0,1,64.9,206c-.85-.78-1.69-1.64-2.57-2.58l-52.64-57c-1.94-2.14-3.46-4.32-3.81-7.19h0A14,14,0,0,1,9.14,128.32Z" fill="#21d64c" fill-rule="evenodd"/><g clip-path="url(#b)"><rect x="3.13" width="497" height="426" fill="#21d64c"/><g clip-path="url(#c)"><rect y="120.1" width="89.85" height="95.66" fill="#21d64c"/></g></g><path d="M246.84,217.67v2.22c0,7,2.37,11.65,8.73,11.65,7.15,0,9.12-5.79,9.12-22.3v-17c-3.14,4.85-7.42,7.47-15.73,7.47-16.06,0-22.65-12-22.65-30.45v-17c0-19.87,9.76-31.92,29-31.92,19.63,0,28.75,11.87,28.75,33v51.43c0,21.31-1.91,43.07-28.67,43.07-23.11,0-27.92-15.19-27.92-29.26v-.89Zm-1-67.62v19.62c0,7.72,2,13,9.26,13,7.52,0,9.55-5.94,9.55-17.07V150c0-8.77-2.38-13.51-9.39-13.51C248.42,136.46,245.86,141.14,245.86,150.05Z" fill="#21d64c"/><path d="M493.88,128.32,491,125.47l-72.59,79,5.27,3.88a7.39,7.39,0,0,0,3.27,1.19h0A14.16,14.16,0,0,0,438.11,206c.85-.78,1.69-1.64,2.57-2.58l52.64-57c1.95-2.14,3.47-4.32,3.82-7.19h0A14,14,0,0,0,493.88,128.32Z" fill="#21d64c" fill-rule="evenodd"/><g clip-path="url(#f)"><rect x="2.88" width="497" height="426" fill="#21d64c"/><g clip-path="url(#g)"><rect x="413.16" y="120.1" width="89.85" height="95.66" fill="#21d64c"/></g></g></svg>