<svg xmlns="http://www.w3.org/2000/svg" xmlns:xlink="http://www.w3.org/1999/xlink" width="500.37" height="430.94" viewBox="0 0 500.37 430.94"><defs><clipPath id="a"><polygon points="27.9 165.96 45.13 185.47 112.81 118.79 112.8 82.08 27.9 165.96" fill="#fff" clip-rule="evenodd"/></clipPath><clipPath id="b"><polygon points="473.47 164.96 456.25 184.47 387.57 118.79 387.57 82.08 473.47 164.96" fill="#fff" clip-rule="evenodd"/></clipPath></defs><title>Asset 12</title><path d="M492.72,131.47,409.33,49.92a102.75,102.75,0,0,0-72.2-29.49H163.52a102.61,102.61,0,0,0-72.2,29.49L7.84,131.47a14.46,14.46,0,0,0-.58,20.06l54.56,59.86a14.57,14.57,0,0,0,19.57,1.73l33.84-26.22,3.47,228.27a14.45,14.45,0,0,0,14.46,14.27H367.6a14.45,14.45,0,0,0,14.45-14.27l3.48-228.27,33.83,26.22a14.47,14.47,0,0,0,19.57-1.73l54.56-59.86a14.66,14.66,0,0,0-.77-20.06" fill-rule="evenodd"/><path d="M492.72,131.47,409.33,49.92a102.75,102.75,0,0,0-72.2-29.49H163.52a102.61,102.61,0,0,0-72.2,29.49L7.84,131.47a14.46,14.46,0,0,0-.58,20.06l54.56,59.86a14.57,14.57,0,0,0,19.57,1.73l33.84-26.22,3.47,228.27a14.45,14.45,0,0,0,14.46,14.27H367.6a14.45,14.45,0,0,0,14.45-14.27l3.48-228.27,33.83,26.22a14.47,14.47,0,0,0,19.57-1.73l54.56-59.86a14.66,14.66,0,0,0-.77-20.06" fill="none" stroke="#fff" stroke-miterlimit="10" stroke-width="3" fill-rule="evenodd"/><polygon points="189.42 427.01 227.39 427.01 227.39 317.64 189.42 312.44 189.42 427.01" fill="#fff" fill-rule="evenodd"/><path d="M132.48,427H149V23.42l-6.2,1.1-6.36,1.55-5.9,1.83-5.58,2V419.49A7.52,7.52,0,0,0,132.48,427Z" fill="#fff" fill-rule="evenodd"/><path d="M365.72,427H352.18V23.42l5.55,1.08,6.55,1.59,5.77,1.79,6.17,2.33V416.52A10.5,10.5,0,0,1,365.72,427Z" fill="#fff" fill-rule="evenodd"/><polygon points="273.43 427.01 311.4 427.01 311.4 312.44 273.43 317.64 273.43 427.01" fill="#fff" fill-rule="evenodd"/><polygon points="27.9 165.96 45.13 185.47 112.81 118.79 112.8 82.08 27.9 165.96" fill="#fff" fill-rule="evenodd"/><g clip-path="url(#a)"><rect x="3.37" width="497" height="427" fill="#fff"/></g><polygon points="473.47 164.96 456.25 184.47 387.57 118.79 387.57 82.08 473.47 164.96" fill="#fff" fill-rule="evenodd"/><g clip-path="url(#b)"><rect width="497" height="427" fill="#fff"/></g><path d="M230.26,202.48q6-20.4,16.74-47.26,3.41-8.5,4.93-12.75l5.78-15.3H216.4v-27h73.78V121.9a64.32,64.32,0,0,1-3.48,15.21q-2.64,7.23-7.4,17.6-3.74,7.81-5.78,13.09a297.43,297.43,0,0,0-11.9,38,238.65,238.65,0,0,0-6,40.55h-33A199.8,199.8,0,0,1,230.26,202.48Z" fill="#fff"/></svg>