<svg xmlns="http://www.w3.org/2000/svg" width="496.59" height="412.01" viewBox="0 0 496.59 412.01"><title>Asset 19</title><path d="M490.72,112.55,407.34,31a102.79,102.79,0,0,0-72.2-29.5H161.52A102.62,102.62,0,0,0,89.32,31L5.84,112.55a14.45,14.45,0,0,0-.58,20l54.56,59.86a14.57,14.57,0,0,0,19.57,1.74L113.23,168l3.47,228.27a14.46,14.46,0,0,0,14.46,14.26H365.6a14.47,14.47,0,0,0,14.46-14.26L383.53,168l33.83,26.22a14.48,14.48,0,0,0,19.57-1.74l54.56-59.86a14.65,14.65,0,0,0-.77-20" fill="#0982c6" fill-rule="evenodd"/><path d="M490.72,112.55,407.34,31a102.79,102.79,0,0,0-72.2-29.5H161.52A102.62,102.62,0,0,0,89.32,31L5.84,112.55a14.45,14.45,0,0,0-.58,20l54.56,59.86a14.57,14.57,0,0,0,19.57,1.74L113.23,168l3.47,228.27a14.46,14.46,0,0,0,14.46,14.26H365.6a14.47,14.47,0,0,0,14.46-14.26L383.53,168l33.83,26.22a14.48,14.48,0,0,0,19.57-1.74l54.56-59.86a14.65,14.65,0,0,0-.77-20" fill="none" stroke="#fff" stroke-miterlimit="10" stroke-width="3" fill-rule="evenodd"/><polygon points="160.43 410.09 180.18 410.09 180.18 1.5 160.43 1.82 160.43 410.09" fill="#fff" fill-rule="evenodd"/><path d="M126.46,410.09h13.87V4.49l-4.2,1.1-2.36.55L127.87,8l-5.58,2v396A4.17,4.17,0,0,0,126.46,410.09Z" fill="#fff" fill-rule="evenodd"/><path d="M370.14,410.09H356.26V4.49l4.2,1.1,2.36.55L368.72,8l5.58,2v396A4.17,4.17,0,0,1,370.14,410.09Z" fill="#fff" fill-rule="evenodd"/><polygon points="199.42 410.09 219.18 410.09 219.18 1.82 199.42 1.5 199.42 410.09" fill="#fff" fill-rule="evenodd"/><polygon points="238.42 410.09 258.17 410.09 258.17 1.5 238.42 1.82 238.42 410.09" fill="#fff" fill-rule="evenodd"/><polygon points="277.42 410.09 297.17 410.09 297.17 1.82 277.42 1.5 277.42 410.09" fill="#fff" fill-rule="evenodd"/><polygon points="316.41 410.09 336.16 410.09 336.16 1.5 316.41 1.82 316.41 410.09" fill="#fff" fill-rule="evenodd"/><text transform="translate(173.08 236.46)" font-size="170" fill="#0982c6" stroke="#fff" stroke-miterlimit="10" stroke-width="4" font-family="Anton-Regular, Anton">10</text></svg>