<svg xmlns="http://www.w3.org/2000/svg" xmlns:xlink="http://www.w3.org/1999/xlink" width="502.3" height="428.29" viewBox="0 0 502.3 428.29"><defs><clipPath id="a"><polygon points="417.45 206.95 426.78 213.34 437.82 210.25 495.88 146.25 497.3 134.67 490.54 127.67 417.45 206.95" fill="none" clip-rule="evenodd"/></clipPath><clipPath id="b"><rect x="2.16" y="2.57" width="497" height="426" fill="none"/></clipPath><clipPath id="c"><polygon points="84.85 206.95 75.51 213.34 64.48 210.25 6.41 146.25 5 134.67 11.75 127.67 84.85 206.95" fill="none" clip-rule="evenodd"/></clipPath><clipPath id="d"><rect x="3.13" y="2.57" width="497" height="426" fill="none"/></clipPath></defs><title>Asset 9</title><path d="M320.13,14.65,298.34,3.18a14.49,14.49,0,1,0-13.49,25.64l21.78,11.47a13.94,13.94,0,0,0,6.75,1.64,14.47,14.47,0,0,0,6.75-27.28" fill="#fff" fill-rule="evenodd"/><path d="M320.13,14.65,298.34,3.18a14.49,14.49,0,1,0-13.49,25.64l21.78,11.47a13.94,13.94,0,0,0,6.75,1.64,14.47,14.47,0,0,0,6.75-27.28" fill="none" stroke="#fff" stroke-miterlimit="10" stroke-width="3" fill-rule="evenodd"/><path d="M182.87,14.65,204.66,3.18a14.49,14.49,0,1,1,13.49,25.64L196.37,40.29a13.94,13.94,0,0,1-6.75,1.64,14.47,14.47,0,0,1-6.75-27.28" fill="#fff" fill-rule="evenodd"/><path d="M182.87,14.65,204.66,3.18a14.49,14.49,0,1,1,13.49,25.64L196.37,40.29a13.94,13.94,0,0,1-6.75,1.64,14.47,14.47,0,0,1-6.75-27.28" fill="none" stroke="#fff" stroke-miterlimit="10" stroke-width="3" fill-rule="evenodd"/><path d="M493.93,128.83,410.54,47.28a102.76,102.76,0,0,0-72.2-29.5H164.73a102.58,102.58,0,0,0-72.2,29.5L9.05,128.83a14.44,14.44,0,0,0-.58,20L63,208.74a14.57,14.57,0,0,0,19.57,1.74l33.83-26.22,3.47,228.26a14.47,14.47,0,0,0,14.46,14.27H368.8a14.46,14.46,0,0,0,14.46-14.27l3.47-228.26,33.84,26.22a14.48,14.48,0,0,0,19.57-1.74l54.56-59.86a14.65,14.65,0,0,0-.77-20" fill="#ce2c2c" fill-rule="evenodd"/><path d="M493.93,128.83,410.54,47.28a102.76,102.76,0,0,0-72.2-29.5H164.73a102.58,102.58,0,0,0-72.2,29.5L9.05,128.83a14.44,14.44,0,0,0-.58,20L63,208.74a14.57,14.57,0,0,0,19.57,1.74l33.83-26.22,3.47,228.26a14.47,14.47,0,0,0,14.46,14.27H368.8a14.46,14.46,0,0,0,14.46-14.27l3.47-228.26,33.84,26.22a14.48,14.48,0,0,0,19.57-1.74l54.56-59.86a14.65,14.65,0,0,0-.77-20" fill="none" stroke="#fff" stroke-miterlimit="10" stroke-width="3" fill-rule="evenodd"/><g clip-path="url(#a)"><g clip-path="url(#b)"><rect x="412.45" y="122.67" width="89.85" height="95.66" fill="#fff"/></g></g><g clip-path="url(#c)"><g clip-path="url(#d)"><rect y="122.67" width="89.85" height="95.66" fill="#fff"/></g></g><path d="M270.88,255.74H232c-7.48,0-11.56-4.25-11.56-11.9V213.92h19v25.16h24.14v-50H220.39l2-63.24h59.33v17H240.45l-1.19,29.58h31.62c7.65,0,11.73,4.25,11.73,11.73v59.67C282.61,251.49,278.53,255.74,270.88,255.74Z" fill="#fff"/></svg>