<svg xmlns="http://www.w3.org/2000/svg" xmlns:xlink="http://www.w3.org/1999/xlink" width="502.3" height="412.01" viewBox="0 0 502.3 412.01"><defs><clipPath id="a" transform="translate(0 -13.71)"><polygon points="417.45 204.38 426.78 210.76 437.82 207.68 495.88 143.67 497.3 132.1 490.54 125.1 417.45 204.38" fill="none" clip-rule="evenodd"/></clipPath><clipPath id="b" transform="translate(0 -13.71)"><rect x="2.16" width="497" height="426" fill="none"/></clipPath><clipPath id="c" transform="translate(0 -13.71)"><polygon points="84.85 204.38 75.51 210.76 64.48 207.68 6.41 143.67 5 132.1 11.75 125.1 84.85 204.38" fill="none" clip-rule="evenodd"/></clipPath><clipPath id="d" transform="translate(0 -13.71)"><rect x="3.13" width="497" height="426" fill="none"/></clipPath></defs><title>camisa-cruzeiro</title><path d="M493.93,126.26,410.54,44.7a102.75,102.75,0,0,0-72.2-29.49H164.73A102.57,102.57,0,0,0,92.53,44.7L9.05,126.26a14.44,14.44,0,0,0-.58,20L63,206.17A14.57,14.57,0,0,0,82.6,207.9l33.83-26.22L119.9,410a14.47,14.47,0,0,0,14.46,14.27H368.8A14.46,14.46,0,0,0,383.26,410l3.47-228.27,33.84,26.22a14.47,14.47,0,0,0,19.57-1.73l54.56-59.86a14.65,14.65,0,0,0-.77-20" transform="translate(0 -13.71)" fill="#037ce1" fill-rule="evenodd"/><path d="M493.93,126.26,410.54,44.7a102.75,102.75,0,0,0-72.2-29.49H164.73A102.57,102.57,0,0,0,92.53,44.7L9.05,126.26a14.44,14.44,0,0,0-.58,20L63,206.17A14.57,14.57,0,0,0,82.6,207.9l33.83-26.22L119.9,410a14.47,14.47,0,0,0,14.46,14.27H368.8A14.46,14.46,0,0,0,383.26,410l3.47-228.27,33.84,26.22a14.47,14.47,0,0,0,19.57-1.73l54.56-59.86a14.65,14.65,0,0,0-.77-20" transform="translate(0 -13.71)" fill="none" stroke="#fff" stroke-miterlimit="10" stroke-width="3" fill-rule="evenodd"/><path d="M295.39,172q5.82,7.78,5.82,19.22,0,17-13.33,26.55t-36.38,9.57q-23.07,0-36.38-9.57t-13.33-26.55q0-11.81,5.9-19.58T224.5,161a29.32,29.32,0,0,1-14.3-11,30.42,30.42,0,0,1-5-17.43q0-15.92,12.52-25.12t33.79-9.21q21.45,0,33.88,9.21t12.43,25.12a31.07,31.07,0,0,1-5.1,17.88,26.88,26.88,0,0,1-14,10.54Q289.58,164.23,295.39,172ZM271,188.54q0-13.95-19.49-13.95T232,188.54q0,14,19.49,14T271,188.54Zm-31.47-62.31q-3.93,3.13-3.93,10.1t3.93,10.19q3.93,3.22,12,3.22t12-3.22q3.93-3.21,3.93-10.19t-3.93-10.1q-3.93-3.14-12-3.13T239.52,126.23Z" transform="translate(0 -13.71)" fill="#fff"/><path d="M237.53,42.8a1,1,0,0,1,.32.81v4.64a1,1,0,0,1-.33.77,1.28,1.28,0,0,1-.87.3,1.22,1.22,0,0,1-.8-.26,1,1,0,0,1-.32-.71,2,2,0,0,1-.78.74,2.29,2.29,0,0,1-1.1.26,2.39,2.39,0,0,1-1.89-.71,3.18,3.18,0,0,1-.61-2.14V43.61a1,1,0,0,1,.32-.81,1.45,1.45,0,0,1,1.74,0,1,1,0,0,1,.32.81v3q0,1,.84,1a1,1,0,0,0,.79-.35,1.34,1.34,0,0,0,.31-.91V43.61a1,1,0,0,1,.32-.81,1.45,1.45,0,0,1,1.74,0Z" transform="translate(0 -13.71)" fill="#fff"/><path d="M249.35,43.13a3.24,3.24,0,0,1,.59,2.19v2.9a1,1,0,0,1-.35.82,1.26,1.26,0,0,1-.85.28,1.28,1.28,0,0,1-.85-.28,1,1,0,0,1-.34-.82V45.27a1.11,1.11,0,0,0-.19-.75.67.67,0,0,0-.55-.22,1,1,0,0,0-.75.34,1.37,1.37,0,0,0-.28.92v2.66a1,1,0,0,1-.34.82,1.26,1.26,0,0,1-.85.28,1.31,1.31,0,0,1-.86-.28,1,1,0,0,1-.34-.82V45.27a1.11,1.11,0,0,0-.19-.75.65.65,0,0,0-.54-.22.92.92,0,0,0-.75.34,1.42,1.42,0,0,0-.27.92v2.66a1,1,0,0,1-.35.82,1.26,1.26,0,0,1-.85.28,1.28,1.28,0,0,1-.85-.28,1,1,0,0,1-.34-.82V43.58a1,1,0,0,1,.35-.8,1.37,1.37,0,0,1,.85-.27,1.26,1.26,0,0,1,.79.24.91.91,0,0,1,.33.72,2.25,2.25,0,0,1,2-1,1.87,1.87,0,0,1,1.92,1.17,2.4,2.4,0,0,1,.9-.86,2.54,2.54,0,0,1,1.27-.31A2.17,2.17,0,0,1,249.35,43.13Z" transform="translate(0 -13.71)" fill="#fff"/><path d="M257.17,42.89a2.84,2.84,0,0,1,1,1.19,4.06,4.06,0,0,1,.37,1.79,4.15,4.15,0,0,1-.37,1.81,2.85,2.85,0,0,1-1,1.23,2.7,2.7,0,0,1-1.51.44,2.65,2.65,0,0,1-1.2-.27,1.91,1.91,0,0,1-.82-.74,1,1,0,0,1-.36.72,1.26,1.26,0,0,1-.82.26,1.2,1.2,0,0,1-.86-.3,1.05,1.05,0,0,1-.31-.8V40.79a1,1,0,0,1,.33-.77,1.3,1.3,0,0,1,.89-.3,1.2,1.2,0,0,1,.84.28.94.94,0,0,1,.33.75v2.67a2,2,0,0,1,.82-.69,2.63,2.63,0,0,1,1.16-.25A2.86,2.86,0,0,1,257.17,42.89Zm-1.3,4.24a2.06,2.06,0,0,0,.33-1.26,1.87,1.87,0,0,0-.33-1.19,1.12,1.12,0,0,0-.94-.42,1.15,1.15,0,0,0-1,.43,1.92,1.92,0,0,0-.33,1.21,2,2,0,0,0,.33,1.23,1.12,1.12,0,0,0,.95.43A1.15,1.15,0,0,0,255.87,47.13Z" transform="translate(0 -13.71)" fill="#fff"/><path d="M264.57,42.71a1,1,0,0,1,.27.73,1,1,0,0,1-.25.78,1.49,1.49,0,0,1-.89.31l-.4,0a1.49,1.49,0,0,0-1,.42,1.37,1.37,0,0,0-.29.94v2.29a1,1,0,0,1-.34.82A1.45,1.45,0,0,1,260,49a1,1,0,0,1-.34-.82V43.58a1,1,0,0,1,.34-.79,1.26,1.26,0,0,1,.83-.28,1.22,1.22,0,0,1,.8.26,1,1,0,0,1,.3.76v.25a1.79,1.79,0,0,1,.7-.91,2,2,0,0,1,1-.35h.19A.9.9,0,0,1,264.57,42.71Z" transform="translate(0 -13.71)" fill="#fff"/><path d="M266.56,48.92a3,3,0,0,1-1.27-1.2,3.91,3.91,0,0,1,0-3.64,3.08,3.08,0,0,1,1.26-1.19,4.31,4.31,0,0,1,1.92-.41,4.25,4.25,0,0,1,1.92.41,3,3,0,0,1,1.27,1.19,3.91,3.91,0,0,1,0,3.64,3,3,0,0,1-1.27,1.2,4,4,0,0,1-1.92.43A4,4,0,0,1,266.56,48.92Zm3.19-3c0-1.11-.43-1.66-1.28-1.66s-1.27.55-1.27,1.66.42,1.66,1.27,1.66S269.75,47,269.75,45.9Z" transform="translate(0 -13.71)" fill="#fff"/><g clip-path="url(#a)"><g clip-path="url(#b)"><rect x="412.45" y="106.39" width="89.85" height="95.66" fill="#fff"/></g></g><g clip-path="url(#c)"><g clip-path="url(#d)"><rect y="106.39" width="89.85" height="95.66" fill="#fff"/></g></g></svg>