<svg xmlns="http://www.w3.org/2000/svg" width="496.59" height="428.29" viewBox="0 0 496.59 428.29"><title>Asset 11</title><path d="M316.92,14.65,295.14,3.18a14.49,14.49,0,1,0-13.5,25.64l21.79,11.47a13.9,13.9,0,0,0,6.74,1.64,14.47,14.47,0,0,0,6.75-27.28" fill="#fff" fill-rule="evenodd"/><path d="M316.92,14.65,295.14,3.18a14.49,14.49,0,1,0-13.5,25.64l21.79,11.47a13.9,13.9,0,0,0,6.74,1.64,14.47,14.47,0,0,0,6.75-27.28" fill="none" stroke="#231f20" stroke-miterlimit="10" stroke-width="3" fill-rule="evenodd"/><path d="M179.67,14.65,201.45,3.18A14.49,14.49,0,1,1,215,28.82L193.16,40.29a13.9,13.9,0,0,1-6.74,1.64,14.47,14.47,0,0,1-6.75-27.28" fill="#fff" fill-rule="evenodd"/><path d="M179.67,14.65,201.45,3.18A14.49,14.49,0,1,1,215,28.82L193.16,40.29a13.9,13.9,0,0,1-6.74,1.64,14.47,14.47,0,0,1-6.75-27.28" fill="none" stroke="#231f20" stroke-miterlimit="10" stroke-width="3" fill-rule="evenodd"/><path d="M490.72,128.83,407.34,47.28a102.79,102.79,0,0,0-72.2-29.5H161.52a102.62,102.62,0,0,0-72.2,29.5L5.84,128.83a14.45,14.45,0,0,0-.58,20l54.56,59.86a14.57,14.57,0,0,0,19.57,1.74l33.84-26.22,3.47,228.26a14.46,14.46,0,0,0,14.46,14.27H365.6a14.47,14.47,0,0,0,14.46-14.27l3.47-228.26,33.83,26.22a14.48,14.48,0,0,0,19.57-1.74l54.56-59.86a14.65,14.65,0,0,0-.77-20" fill-rule="evenodd"/><path d="M490.72,128.83,407.34,47.28a102.79,102.79,0,0,0-72.2-29.5H161.52a102.62,102.62,0,0,0-72.2,29.5L5.84,128.83a14.45,14.45,0,0,0-.58,20l54.56,59.86a14.57,14.57,0,0,0,19.57,1.74l33.84-26.22,3.47,228.26a14.46,14.46,0,0,0,14.46,14.27H365.6a14.47,14.47,0,0,0,14.46-14.27l3.47-228.26,33.83,26.22a14.48,14.48,0,0,0,19.57-1.74l54.56-59.86a14.65,14.65,0,0,0-.77-20" fill="none" stroke="#000" stroke-miterlimit="10" stroke-width="3" fill-rule="evenodd"/><path d="M116.58,415.79l-1-79,250.7-314.4L370.35,24c1.16.43,2.31.92,3.44,1.45l3.58,1.68a102.83,102.83,0,0,1,31.41,21.44l8,8Z" fill="#fff" fill-rule="evenodd"/><path d="M202.4,262V170.33h-7.48v-2.55l10-35.7h16.49V262Z" fill="#ce2c2c"/><path d="M289.94,262H249.48c-7.48,0-11.55-4.25-11.55-11.9V144c0-7.65,4.07-11.9,11.72-11.9h40.29c7.48,0,11.73,4.25,11.73,11.9V250.06C301.67,257.71,297.42,262,289.94,262Zm-7.31-113.22H257V245.3h25.67Z" fill="#ce2c2c"/></svg>