<svg xmlns="http://www.w3.org/2000/svg" xmlns:xlink="http://www.w3.org/1999/xlink" width="496.59" height="412.01" viewBox="0 0 496.59 412.01"><defs><clipPath id="a"><path d="M490.72,112.55,407.34,31a102.79,102.79,0,0,0-72.2-29.5H161.52A102.62,102.62,0,0,0,89.32,31L5.84,112.55a14.45,14.45,0,0,0-.58,20l54.56,59.86a14.57,14.57,0,0,0,19.57,1.74L113.23,168l3.47,228.27a14.46,14.46,0,0,0,14.46,14.26H365.6a14.47,14.47,0,0,0,14.46-14.26L383.53,168l33.83,26.22a14.48,14.48,0,0,0,19.57-1.74l54.56-59.86a14.65,14.65,0,0,0-.77-20" fill="#195fa5" stroke="#fff" stroke-miterlimit="10" stroke-width="3" clip-rule="evenodd"/></clipPath></defs><title>Asset 16</title><path d="M490.72,112.55,407.34,31a102.79,102.79,0,0,0-72.2-29.5H161.52A102.62,102.62,0,0,0,89.32,31L5.84,112.55a14.45,14.45,0,0,0-.58,20l54.56,59.86a14.57,14.57,0,0,0,19.57,1.74L113.23,168l3.47,228.27a14.46,14.46,0,0,0,14.46,14.26H365.6a14.47,14.47,0,0,0,14.46-14.26L383.53,168l33.83,26.22a14.48,14.48,0,0,0,19.57-1.74l54.56-59.86a14.65,14.65,0,0,0-.77-20" fill="#195fa5" fill-rule="evenodd"/><g clip-path="url(#a)"><rect x="116.22" y="333.56" width="264" height="29.78" fill="#d62d4a"/><rect x="116.22" y="300.31" width="264" height="29.78" fill="#195fa5"/><rect x="116.22" y="363.34" width="264" height="3.46" fill="#fff"/><rect x="116.22" y="330.1" width="264" height="3.46" fill="#fff"/><rect x="116.22" y="264.02" width="264" height="29.78" fill="#d62d4a"/><rect x="116.22" y="230.77" width="264" height="29.78" fill="#195fa5"/><rect x="116.22" y="293.8" width="264" height="3.46" fill="#fff"/><rect x="116.22" y="260.56" width="264" height="3.46" fill="#fff"/><rect x="108.01" y="197.01" width="280.41" height="29.78" fill="#d62d4a"/><rect x="108.01" y="163.76" width="280.41" height="29.78" fill="#195fa5"/><rect x="108.01" y="226.79" width="280.41" height="3.46" fill="#fff"/><rect x="108.01" y="193.55" width="280.41" height="3.46" fill="#fff"/><rect x="116.22" y="127.47" width="264" height="29.78" fill="#d62d4a"/><rect x="116.22" y="94.23" width="264" height="29.78" fill="#195fa5"/><rect x="116.22" y="157.26" width="264" height="3.46" fill="#fff"/><rect x="116.22" y="124.01" width="264" height="3.46" fill="#fff"/><rect x="116.22" y="61.62" width="264" height="29.78" fill="#d62d4a"/><rect x="116.22" y="28.37" width="264" height="29.78" fill="#195fa5"/><rect x="116.22" y="91.4" width="264" height="3.46" fill="#fff"/><rect x="116.22" y="58.16" width="264" height="3.46" fill="#fff"/><path d="M116,163.62S131.43,134.42,131.56,31L85.14,41.84Z" fill="#195fa5" fill-rule="evenodd"/><path d="M381.61,163.62S366.18,134.42,366.05,31l46.42,10.8Z" fill="#195fa5" fill-rule="evenodd"/></g><path d="M490.72,112.55,407.34,31a102.79,102.79,0,0,0-72.2-29.5H161.52A102.62,102.62,0,0,0,89.32,31L5.84,112.55a14.45,14.45,0,0,0-.58,20l54.56,59.86a14.57,14.57,0,0,0,19.57,1.74L113.23,168l3.47,228.27a14.46,14.46,0,0,0,14.46,14.26H365.6a14.47,14.47,0,0,0,14.46-14.26L383.53,168l33.83,26.22a14.48,14.48,0,0,0,19.57-1.74l54.56-59.86a14.65,14.65,0,0,0-.77-20" fill="none" stroke="#fff" stroke-miterlimit="10" stroke-width="3" fill-rule="evenodd"/><path d="M229.34,277.07a29.5,29.5,0,0,1-12.66-9.78,25.58,25.58,0,0,1-4.76-15.64V236H240v2.89a39.11,39.11,0,0,0,1.36,11.56,5.67,5.67,0,0,0,5.95,4.25c3.17,0,5.41-.87,6.71-2.63s2-4.39,2-7.91V214.93a15.24,15.24,0,0,1-6.29,6.29,20.19,20.19,0,0,1-10,2.38q-11.91,0-18.45-4.76t-9.09-14.11q-2.55-9.34-2.55-24.65,0-23.28,8.84-35.87t29.24-12.58q15,0,23.63,5.1A27.66,27.66,0,0,1,283.49,152q3.57,10.2,3.57,26.52V218q0,22.62-2.72,35.62T273,273.5q-8.67,6.88-26.18,6.88A44.63,44.63,0,0,1,229.34,277.07ZM256,187.39V169.2q0-10.71-7.31-10.71-4.59,0-5.87,3.66T241.5,174v11.9q0,11.91,6.8,11.9Q256,197.76,256,187.39Z" fill="#fff" stroke="#195fa5" stroke-miterlimit="10" stroke-width="3"/></svg>