<svg xmlns="http://www.w3.org/2000/svg" xmlns:xlink="http://www.w3.org/1999/xlink" width="500.37" height="431.44" viewBox="0 0 500.37 431.44"><defs><clipPath id="a"><polygon points="25.9 166.96 43.13 186.47 112.81 118.79 112.8 82.08 25.9 166.96" fill="#fff" clip-rule="evenodd"/></clipPath><clipPath id="b"><polygon points="474.47 166.96 457.25 186.47 387.57 118.79 387.57 82.08 474.47 166.96" fill="#fff" clip-rule="evenodd"/></clipPath></defs><title>Asset 7</title><path d="M492.72,131.47,409.33,49.92a102.75,102.75,0,0,0-72.2-29.49H163.52a102.61,102.61,0,0,0-72.2,29.49L7.84,131.47a14.46,14.46,0,0,0-.58,20.06l54.56,59.86a14.57,14.57,0,0,0,19.57,1.73l33.84-26.22,3.47,228.27a14.45,14.45,0,0,0,14.46,14.27H367.6a14.45,14.45,0,0,0,14.45-14.27l3.48-228.27,33.83,26.22a14.47,14.47,0,0,0,19.57-1.73l54.56-59.86a14.66,14.66,0,0,0-.77-20.06" fill-rule="evenodd"/><path d="M492.72,131.47,409.33,49.92a102.75,102.75,0,0,0-72.2-29.49H163.52a102.61,102.61,0,0,0-72.2,29.49L7.84,131.47a14.46,14.46,0,0,0-.58,20.06l54.56,59.86a14.57,14.57,0,0,0,19.57,1.73l33.84-26.22,3.47,228.27a14.45,14.45,0,0,0,14.46,14.27H367.6a14.45,14.45,0,0,0,14.45-14.27l3.48-228.27,33.83,26.22a14.47,14.47,0,0,0,19.57-1.73l54.56-59.86a14.66,14.66,0,0,0-.77-20.06" fill="none" stroke="#231f20" stroke-miterlimit="10" stroke-width="4" fill-rule="evenodd"/><polygon points="189.42 427.01 227.39 427.01 227.39 242.74 189.42 242.88 189.42 427.01" fill="#fff" fill-rule="evenodd"/><path d="M129.13,427H149V23.42l-6.2,1.1-6.36,1.55-5.9,1.83-5.58,2V422.84A4.16,4.16,0,0,0,129.13,427Z" fill="#fff" fill-rule="evenodd"/><path d="M372.05,427H352.18V23.42l5.55,1.08,6.55,1.59,5.77,1.79,6.17,2.33V422.84A4.17,4.17,0,0,1,372.05,427Z" fill="#fff" fill-rule="evenodd"/><polygon points="273.43 427.01 311.4 427.01 311.4 242.88 273.43 242.74 273.43 427.01" fill="#fff" fill-rule="evenodd"/><polygon points="189.42 63.71 227.39 63.71 227.39 22.6 189.42 22.63 189.42 63.71" fill="#fff" fill-rule="evenodd"/><polygon points="273.43 63.71 311.4 63.71 311.4 22.63 273.43 22.6 273.43 63.71" fill="#fff" fill-rule="evenodd"/><path d="M192.53,129.71V114.6l14.08-10.27h14.22v99.2H206.61V119.37Z" fill="#fff"/><path d="M226.49,209.19H201V130.55l-14.08,10.34V111.73l17.9-13.06h21.72Zm-14.22-11.32h2.9V110h-2.9Zm-14.08-80.39v1L209.82,110h-1.36Z" fill="#fff"/><path d="M251.79,132q.14-13.74,8.78-21.16a27.75,27.75,0,0,1,19.32-7.35,28.19,28.19,0,0,1,19.66,7.35q8.24,7.42,8.51,21.16v43.75q-.27,13.68-8.51,21.09a28.72,28.72,0,0,1-19.66,7.49,28.29,28.29,0,0,1-19.32-7.49q-8.64-7.41-8.78-21.09Zm42,.89q-.4-14.91-13.95-15.18Q266.28,118,266,132.91V175q.27,15,13.88,15.17Q293.44,190,293.84,175Z" fill="#fff"/><path d="M279.89,210h-.07a33.93,33.93,0,0,1-23-8.9c-7-6-10.58-14.53-10.69-25.28V132c.11-10.8,3.7-19.32,10.69-25.35a33.39,33.39,0,0,1,23.07-8.77,33.86,33.86,0,0,1,23.47,8.82c6.65,6,10.15,14.49,10.36,25.24v44c-.21,10.71-3.71,19.18-10.38,25.19A34.36,34.36,0,0,1,280,210Zm-22.44-78v43.72c.07,7.42,2.3,12.93,6.8,16.8l.12.1a22.63,22.63,0,0,0,15.52,6,23.06,23.06,0,0,0,15.86-6c4.32-3.89,6.49-9.43,6.65-17V132.08c-.16-7.57-2.33-13.14-6.64-17a22.55,22.55,0,0,0-15.87-5.9,22.14,22.14,0,0,0-15.52,5.88l-.12.11C259.76,119,257.53,124.55,257.45,132.05Zm22.44,63.74h-.06c-12.14-.12-19.24-7.68-19.48-20.73V132.8c.24-12.93,7.32-20.48,19.43-20.73H280c12,.25,19.14,7.78,19.5,20.68v42.36c-.36,13-7.48,20.56-19.55,20.68Zm-8.22-20.89c.16,7.87,3.26,9.51,8.22,9.57s8.05-1.71,8.29-9.6V133c-.24-7.79-3.34-9.47-8.29-9.59-5,.12-8.06,1.79-8.22,9.56Z" fill="#fff"/><polygon points="25.9 166.96 43.13 186.47 112.81 118.79 112.8 82.08 25.9 166.96" fill="#fff" fill-rule="evenodd"/><g clip-path="url(#a)"><rect x="3.37" width="497" height="427" fill="#fff"/></g><polygon points="474.47 166.96 457.25 186.47 387.57 118.79 387.57 82.08 474.47 166.96" fill="#fff" fill-rule="evenodd"/><g clip-path="url(#b)"><rect width="497" height="427" fill="#fff"/></g></svg>