<svg xmlns="http://www.w3.org/2000/svg" xmlns:xlink="http://www.w3.org/1999/xlink" width="501.08" height="413.01" viewBox="0 0 501.08 413.01"><defs><clipPath id="a" transform="translate(0 -13.44)"><path d="M84.85,203.38l-3.49,2.38c-3.71,2.54-8.34,4.31-12.67,3.1h0a15.24,15.24,0,0,1-7.15-4.42l-51-56.25a19.3,19.3,0,0,1-4.84-10.57h0a11.72,11.72,0,0,1,3.19-9.53l3.89-4Z" fill="none" clip-rule="evenodd"/></clipPath><clipPath id="b" transform="translate(0 -13.44)"><rect x="3.13" width="497" height="426" fill="none"/></clipPath><clipPath id="c" transform="translate(0 -13.44)"><path d="M416.23,203.38l3.5,2.38c3.7,2.54,8.34,4.31,12.66,3.1h0a15.24,15.24,0,0,0,7.15-4.42l51-56.25a19.16,19.16,0,0,0,4.84-10.57h0a11.69,11.69,0,0,0-3.19-9.53l-3.89-4Z" fill="none" clip-rule="evenodd"/></clipPath><clipPath id="d" transform="translate(0 -13.44)"><rect x="0.95" width="497" height="426" fill="none"/></clipPath></defs><title>camisa-atleticomg</title><path d="M492.43,126.49,409,44.94a102.76,102.76,0,0,0-72.2-29.5H163.23A102.6,102.6,0,0,0,91,44.94L7.55,126.49a14.44,14.44,0,0,0-.58,20L61.53,206.4a14.57,14.57,0,0,0,19.57,1.74l33.83-26.22,3.47,228.27a14.47,14.47,0,0,0,14.46,14.26H367.3a14.46,14.46,0,0,0,14.46-14.26l3.47-228.27,33.84,26.22a14.48,14.48,0,0,0,19.57-1.74l54.56-59.86a14.65,14.65,0,0,0-.77-20" transform="translate(0 -13.44)" fill-rule="evenodd"/><path d="M492.43,126.49,409,44.94a102.76,102.76,0,0,0-72.2-29.5H163.23A102.6,102.6,0,0,0,91,44.94L7.55,126.49a14.44,14.44,0,0,0-.58,20L61.53,206.4a14.57,14.57,0,0,0,19.57,1.74l33.83-26.22,3.47,228.27a14.47,14.47,0,0,0,14.46,14.26H367.3a14.46,14.46,0,0,0,14.46-14.26l3.47-228.27,33.84,26.22a14.48,14.48,0,0,0,19.57-1.74l54.56-59.86a14.65,14.65,0,0,0-.77-20" transform="translate(0 -13.44)" fill="none" stroke="#231f20" stroke-miterlimit="10" stroke-width="4" fill-rule="evenodd"/><g clip-path="url(#a)"><g clip-path="url(#b)"><rect y="106.66" width="89.85" height="95.66" fill="#fff"/></g></g><g clip-path="url(#c)"><g clip-path="url(#d)"><rect x="411.23" y="106.66" width="89.85" height="95.66" fill="#fff"/></g></g><polygon points="189.13 408.59 227.09 408.59 227.09 3.87 189.13 31.89 189.13 408.59" fill="#fff" fill-rule="evenodd"/><path d="M128.83,422H148.7V103.1l-24,56.7V417.86A4.17,4.17,0,0,0,128.83,422Z" transform="translate(0 -13.44)" fill="#fff" fill-rule="evenodd"/><path d="M371.76,422H351.89V103.1l24,56.7V417.86A4.17,4.17,0,0,1,371.76,422Z" transform="translate(0 -13.44)" fill="#fff" fill-rule="evenodd"/><polygon points="273.14 408.59 311.11 408.59 311.11 31.89 273.14 3.87 273.14 408.59" fill="#fff" fill-rule="evenodd"/><path d="M206.33,208.68V135.51H231v73.17h9.76v23H231V259.8H206.33V231.67H179.45a18.4,18.4,0,0,1-12.78-4.85,15.76,15.76,0,0,1-5.44-12l11.31-79.26h22.77l-9.25,73.17Z" transform="translate(0 -13.44)" stroke="#fff" stroke-miterlimit="10" stroke-width="8"/><path d="M306.09,204.56q-9.48,5.15-17.63,5.15a23.71,23.71,0,0,1-13.15-3.9q-12.19-7.86-12.19-24.9V152.48a15.77,15.77,0,0,1,5.43-12,18.28,18.28,0,0,1,12.78-4.93h31.15a18.35,18.35,0,0,1,12.85,4.93,15.75,15.75,0,0,1,5.44,12v90.35a15.76,15.76,0,0,1-5.44,12,18.34,18.34,0,0,1-12.85,4.92H281.33a18.28,18.28,0,0,1-12.78-4.92,15.78,15.78,0,0,1-5.43-12v-25H287.8v19h18.29Zm0-46.05H287.8v22.4q0,4.56,2.13,6.39,2,1.62,7,1.62t7-1.62q2.21-1.83,2.21-6.39Z" transform="translate(0 -13.44)" stroke="#fff" stroke-miterlimit="10" stroke-width="8"/></svg>