<svg xmlns="http://www.w3.org/2000/svg" xmlns:xlink="http://www.w3.org/1999/xlink" width="496.59" height="412.01" viewBox="0 0 496.59 412.01"><defs><clipPath id="a"><path d="M490.72,112.55,407.34,31a102.79,102.79,0,0,0-72.2-29.5H161.52A102.62,102.62,0,0,0,89.32,31L5.84,112.55a14.45,14.45,0,0,0-.58,20l54.56,59.86a14.57,14.57,0,0,0,19.57,1.74L113.23,168l3.47,228.27a14.46,14.46,0,0,0,14.46,14.26H365.6a14.47,14.47,0,0,0,14.46-14.26L383.53,168l33.83,26.22a14.48,14.48,0,0,0,19.57-1.74l54.56-59.86a14.65,14.65,0,0,0-.77-20" fill="#a32121" stroke="#fff" stroke-miterlimit="10" stroke-width="3" clip-rule="evenodd"/></clipPath></defs><title>Asset 23</title><path d="M490.72,112.55,407.34,31a102.79,102.79,0,0,0-72.2-29.5H161.52A102.62,102.62,0,0,0,89.32,31L5.84,112.55a14.45,14.45,0,0,0-.58,20l54.56,59.86a14.57,14.57,0,0,0,19.57,1.74L113.23,168l3.47,228.27a14.46,14.46,0,0,0,14.46,14.26H365.6a14.47,14.47,0,0,0,14.46-14.26L383.53,168l33.83,26.22a14.48,14.48,0,0,0,19.57-1.74l54.56-59.86a14.65,14.65,0,0,0-.77-20" fill="#a32121" fill-rule="evenodd"/><g clip-path="url(#a)"><rect x="116.22" y="377.31" width="264" height="33.05" fill="#a32121"/><rect x="116.22" y="343.75" width="264" height="33.05" fill="#191919"/><rect x="116.22" y="300.1" width="264" height="43" fill="#a32121"/><rect x="116.22" y="256.43" width="264" height="43" fill="#191919"/><rect x="116.22" y="212.78" width="264" height="43" fill="#a32121"/><rect x="116.22" y="169.11" width="264" height="43" fill="#191919"/><rect x="116.22" y="125.45" width="264" height="43" fill="#a32121"/><rect x="116.22" y="81.79" width="264" height="43" fill="#191919"/><rect x="116.22" y="42.29" width="264" height="38.84" fill="#a32121"/><rect x="116.22" y="2.85" width="264" height="38.84" fill="#191919"/></g><path d="M490.72,112.55,407.34,31a102.79,102.79,0,0,0-72.2-29.5H161.52A102.62,102.62,0,0,0,89.32,31L5.84,112.55a14.45,14.45,0,0,0-.58,20l54.56,59.86a14.57,14.57,0,0,0,19.57,1.74L113.23,168l3.47,228.27a14.46,14.46,0,0,0,14.46,14.26H365.6a14.47,14.47,0,0,0,14.46-14.26L383.53,168l33.83,26.22a14.48,14.48,0,0,0,19.57-1.74l54.56-59.86a14.65,14.65,0,0,0-.77-20" fill="none" stroke="#fff" stroke-miterlimit="10" stroke-width="3" fill-rule="evenodd"/><path d="M189.88,111.66l-25.67,13.26V103.67L194.47,87H213V206H189.88Z" fill="#fff"/><path d="M234.24,186.29V106.73L254,87h52.69l19.72,19.72v79.56L306.66,206H254Zm61.54,0,7.48-7.48v-64.6l-7.48-7.48H264.84l-7.48,7.48v64.6l7.48,7.48Z" fill="#fff"/></svg>