<svg xmlns="http://www.w3.org/2000/svg" xmlns:xlink="http://www.w3.org/1999/xlink" width="503.59" height="430.72" viewBox="0 0 503.59 430.72"><defs><clipPath id="a"><path d="M494.22,127.75,410.84,46.2a102.79,102.79,0,0,0-72.2-29.5H165A102.63,102.63,0,0,0,92.82,46.2L9.34,127.75a14.44,14.44,0,0,0-.57,20.05l54.55,59.87a14.57,14.57,0,0,0,19.57,1.73l33.84-26.22,3.47,228.27a14.47,14.47,0,0,0,14.46,14.27H369.1a14.47,14.47,0,0,0,14.46-14.27L387,183.18l33.83,26.22a14.47,14.47,0,0,0,19.57-1.73L495,147.8a14.65,14.65,0,0,0-.77-20.05" fill="none" clip-rule="evenodd"/></clipPath></defs><title>Asset 8</title><path d="M320.42,15.65,298.64,4.18a14.49,14.49,0,1,0-13.5,25.64l21.79,11.47a13.9,13.9,0,0,0,6.74,1.64,14.47,14.47,0,0,0,6.75-27.28" fill-rule="evenodd"/><path d="M320.42,15.65,298.64,4.18a14.49,14.49,0,1,0-13.5,25.64l21.79,11.47a13.9,13.9,0,0,0,6.74,1.64,14.47,14.47,0,0,0,6.75-27.28" fill="none" stroke="#cc021b" stroke-miterlimit="10" stroke-width="5" fill-rule="evenodd"/><path d="M183.17,15.65,205,4.18a14.49,14.49,0,1,1,13.5,25.64L196.66,41.29a13.9,13.9,0,0,1-6.74,1.64,14.47,14.47,0,0,1-6.75-27.28" fill-rule="evenodd"/><path d="M183.17,15.65,205,4.18a14.49,14.49,0,1,1,13.5,25.64L196.66,41.29a13.9,13.9,0,0,1-6.74,1.64,14.47,14.47,0,0,1-6.75-27.28" fill="none" stroke="#cc021b" stroke-miterlimit="10" stroke-width="5" fill-rule="evenodd"/><g clip-path="url(#a)"><rect y="11.7" width="503.59" height="419.01" fill="#fff"/></g><path d="M494.22,127.75,410.84,46.2a102.79,102.79,0,0,0-72.2-29.5H165a102.62,102.62,0,0,0-72.2,29.5L9.34,127.75a14.44,14.44,0,0,0-.57,20.05l54.55,59.87a14.57,14.57,0,0,0,19.57,1.73l33.84-26.22,3.47,228.27a14.46,14.46,0,0,0,14.46,14.27H369.1a14.47,14.47,0,0,0,14.46-14.27L387,183.18l33.83,26.22a14.47,14.47,0,0,0,19.57-1.73L495,147.8A14.65,14.65,0,0,0,494.22,127.75Z" fill="#cc021b"/><polygon points="119 332.74 387.58 132.13 387.03 183.18 119.8 382 119 332.74" fill="#231f20" fill-rule="evenodd"/><polygon points="202.09 425.72 385.4 290.24 384.62 341.45 269.93 425.72 202.09 425.72" fill="#231f20" fill-rule="evenodd"/><path d="M305,426.24l79.33-58.64L384,410.78a15.09,15.09,0,0,1-6.16,12h0a15,15,0,0,1-8.83,2.93Z" fill="#231f20" fill-rule="evenodd"/><path d="M120.18,410.09l266.42-199-.78,51.22L166.19,425.72H133.75c-7.79,0-13.55-6.13-13.55-14.27Z" fill="#231f20" fill-rule="evenodd"/><path d="M294.22,251h-87a3.91,3.91,0,0,1-3.83-4.69,60.46,60.46,0,0,1,9.23-21.91q8.31-12.46,31.21-29.42,14-10.38,17.89-15.78t3.9-10.23a12,12,0,0,0-3.86-9,14.74,14.74,0,0,0-19.69.12q-3.15,3.12-4.62,10.12a3.9,3.9,0,0,1-4.13,3.11l-24.1-2a3.91,3.91,0,0,1-3.51-4.65q2-10.38,6.16-16.67A32,32,0,0,1,226,138.53q9.09-4,25.19-4,16.8,0,26.13,3.83A31.88,31.88,0,0,1,292,150.09a31,31,0,0,1,5.35,17.77,36.37,36.37,0,0,1-6.13,20q-6.13,9.54-22.3,20.94-9.62,6.64-12.86,9.3l-4.43,3.63a1.87,1.87,0,0,0,1.19,3.32h41.41a3.9,3.9,0,0,1,3.9,3.9v18.14A3.9,3.9,0,0,1,294.22,251Z" fill="#fff"/></svg>