<svg xmlns="http://www.w3.org/2000/svg" xmlns:xlink="http://www.w3.org/1999/xlink" width="503.45" height="427.34" viewBox="0 0 503.45 427.34"><defs><clipPath id="a"><path d="M9.14,129.22,12,126.37l72.6,79-5.28,3.88a7.16,7.16,0,0,1-3.27,1.19h0a14.17,14.17,0,0,1-11.15-3.52c-.85-.78-1.69-1.64-2.57-2.58l-52.64-57c-1.94-2.14-3.46-4.32-3.81-7.18h0A14,14,0,0,1,9.14,129.22Z" fill="none"/></clipPath><clipPath id="b"><path d="M9.14,129.22,12,126.37l72.6,79-5.28,3.88a7.16,7.16,0,0,1-3.27,1.19h0a14.17,14.17,0,0,1-11.15-3.52c-.85-.78-1.69-1.64-2.57-2.58l-52.64-57c-1.94-2.14-3.46-4.32-3.81-7.18h0A14,14,0,0,1,9.14,129.22Z" fill="#fff" clip-rule="evenodd"/></clipPath><clipPath id="c"><rect x="3.13" y="0.9" width="497" height="426" fill="#fff"/></clipPath><clipPath id="e"><path d="M494.31,129.66l-2.86-2.85-72.6,79,5.28,3.88a7.39,7.39,0,0,0,3.27,1.19h0a14.17,14.17,0,0,0,11.15-3.52c.85-.78,1.69-1.64,2.57-2.58l52.64-57c1.94-2.14,3.46-4.32,3.81-7.19h0A14,14,0,0,0,494.31,129.66Z" fill="none"/></clipPath><clipPath id="f"><path d="M494.31,129.66l-2.86-2.85-72.6,79,5.28,3.88a7.39,7.39,0,0,0,3.27,1.19h0a14.17,14.17,0,0,0,11.15-3.52c.85-.78,1.69-1.64,2.57-2.58l52.64-57c1.94-2.14,3.46-4.32,3.81-7.19h0A14,14,0,0,0,494.31,129.66Z" fill="#fff" clip-rule="evenodd"/></clipPath><clipPath id="g"><rect x="3.32" y="1.34" width="497" height="426" fill="#fff"/></clipPath></defs><title>camisa-gremio</title><path d="M321.19,13.15,299.4,1.68a14.49,14.49,0,0,0-13.49,25.64l21.78,11.47a14,14,0,0,0,6.75,1.64,14.47,14.47,0,0,0,6.75-27.28" fill="#fff" fill-rule="evenodd"/><path d="M183.94,13.15,205.72,1.68a14.49,14.49,0,1,1,13.5,25.64L197.43,38.79a13.91,13.91,0,0,1-6.75,1.64,14.47,14.47,0,0,1-6.74-27.28" fill="#fff" fill-rule="evenodd"/><path d="M495,127.09,411.6,45.54A102.76,102.76,0,0,0,339.4,16H165.79a102.62,102.62,0,0,0-72.2,29.5L10.11,127.09a14.45,14.45,0,0,0-.58,20L64.09,207a14.57,14.57,0,0,0,19.57,1.73l33.84-26.22L121,410.79a14.46,14.46,0,0,0,14.46,14.27H369.87a14.46,14.46,0,0,0,14.45-14.27l3.48-228.27,33.83,26.22A14.47,14.47,0,0,0,441.2,207l54.56-59.87a14.65,14.65,0,0,0-.77-20" fill="#00a4ff" fill-rule="evenodd"/><path d="M495,127.09,411.6,45.54A102.76,102.76,0,0,0,339.4,16H165.79a102.62,102.62,0,0,0-72.2,29.5L10.11,127.09a14.45,14.45,0,0,0-.58,20L64.09,207a14.57,14.57,0,0,0,19.57,1.73l33.84-26.22L121,410.79a14.46,14.46,0,0,0,14.46,14.27H369.87a14.46,14.46,0,0,0,14.45-14.27l3.48-228.27,33.83,26.22A14.47,14.47,0,0,0,441.2,207l54.56-59.87a14.65,14.65,0,0,0-.77-20" fill="none" stroke="#fff" stroke-miterlimit="10" stroke-width="4" fill-rule="evenodd"/><polygon points="144.59 423.19 168.85 423.19 168.85 17.42 144.59 20.24 144.59 423.19" fill="#161616" fill-rule="evenodd"/><rect x="168.85" y="17.42" width="7.38" height="405.76" fill="#fff"/><polygon points="137.22 423.19 144.59 423.19 144.59 20.24 137.22 22.57 137.22 423.19" fill="#fff" fill-rule="evenodd"/><rect x="207.87" y="18.22" width="24.26" height="404.96" fill="#161616"/><rect x="232.13" y="18.22" width="7.38" height="404.96" fill="#fff"/><rect x="200.49" y="18.22" width="7.38" height="404.96" fill="#fff"/><rect x="273" y="18.22" width="24.26" height="404.96" fill="#161616"/><rect x="297.26" y="18.22" width="7.38" height="404.96" fill="#fff"/><rect x="265.62" y="18.22" width="7.38" height="404.96" fill="#fff"/><polygon points="336.27 423.19 360.54 423.19 360.54 20.18 336.27 18.22 336.27 423.19" fill="#161616" fill-rule="evenodd"/><polygon points="360.54 423.19 367.91 423.19 367.91 22.27 360.54 20.18 360.54 423.19" fill="#fff" fill-rule="evenodd"/><rect x="328.9" y="18.22" width="7.38" height="404.96" fill="#fff"/><polygon points="466.13 171.46 487.14 148.74 389.62 57.68 389.62 103.62 466.13 171.46" fill="#161616" fill-rule="evenodd"/><polygon points="461.13 176.88 466.13 171.46 389.5 98.92 389.62 109.47 461.13 176.88" fill="#fff" fill-rule="evenodd"/><polygon points="487.14 148.74 492.2 143.37 389.5 47.12 389.62 57.68 487.14 148.74" fill="#fff" fill-rule="evenodd"/><polygon points="439.7 201.31 444.77 195.95 389.5 150.06 389.62 160.61 439.7 201.31" fill="#fff" fill-rule="evenodd"/><polygon points="385.65 179.57 385.65 26.98 391.35 31.91 391.35 184.54 385.65 179.57" fill="#fff" fill-rule="evenodd"/><polygon points="38.71 172.24 17.7 149.51 115.21 58.45 115.34 99.69 38.71 172.24" fill="#161616" fill-rule="evenodd"/><polygon points="43.7 177.66 38.71 172.24 115.34 99.69 115.21 110.25 43.7 177.66" fill="#fff" fill-rule="evenodd"/><polygon points="17.7 149.51 12.63 144.15 115.34 47.9 115.21 58.45 17.7 149.51" fill="#fff" fill-rule="evenodd"/><polygon points="65.13 202.09 60.07 196.72 115.34 150.84 115.21 161.39 65.13 202.09" fill="#fff" fill-rule="evenodd"/><polygon points="119.5 179.35 120.4 27.08 114.69 32.01 113.8 183.32 119.5 179.35" fill="#fff" fill-rule="evenodd"/><path d="M9.14,129.22,12,126.37l72.6,79-5.28,3.88a7.16,7.16,0,0,1-3.27,1.19h0a14.17,14.17,0,0,1-11.15-3.52c-.85-.78-1.69-1.64-2.57-2.58l-52.64-57c-1.94-2.14-3.46-4.32-3.81-7.18h0A14,14,0,0,1,9.14,129.22Z" fill="#fff" fill-rule="evenodd"/><g clip-path="url(#b)"><rect x="3.13" y="0.9" width="497" height="426" fill="#fff"/><g clip-path="url(#c)"><rect y="121" width="89.85" height="95.66" fill="#fff"/></g></g><path d="M494.31,129.66l-2.86-2.85-72.6,79,5.28,3.88a7.39,7.39,0,0,0,3.27,1.19h0a14.17,14.17,0,0,0,11.15-3.52c.85-.78,1.69-1.64,2.57-2.58l52.64-57c1.94-2.14,3.46-4.32,3.81-7.19h0A14,14,0,0,0,494.31,129.66Z" fill="#fff" fill-rule="evenodd"/><g clip-path="url(#f)"><rect x="3.32" y="1.34" width="497" height="426" fill="#fff"/><g clip-path="url(#g)"><rect x="413.6" y="121.44" width="89.85" height="95.66" fill="#fff"/></g></g><path d="M296.52,131q-19.09,38.1-35.4,70.6t-18.56,37.16l-22.06-11.3q15.36-29.6,28.52-56t17.4-34.78l-.08-.28c-2.61,0-5.06,0-7.35.05s-4.75,0-7.35,0q-13,0-26.25.19t-14.78.19V114.13l12.49.05q11.42,0,24.28,0,8.55,0,21.25,0l16.93-.05Z" fill="#fff" stroke="#161616" stroke-miterlimit="10" stroke-width="2"/></svg>