<svg xmlns="http://www.w3.org/2000/svg" width="493.59" height="425.06" viewBox="0 0 493.59 425.06"><title>Asset 14</title><path d="M315.42,13.15,293.64,1.68a14.49,14.49,0,1,0-13.5,25.64l21.79,11.47a13.9,13.9,0,0,0,6.74,1.64,14.47,14.47,0,0,0,6.75-27.28" fill="#fff" fill-rule="evenodd"/><path d="M178.17,13.15,200,1.68a14.49,14.49,0,1,1,13.5,25.64L191.66,38.79a13.9,13.9,0,0,1-6.74,1.64,14.47,14.47,0,0,1-6.75-27.28" fill="#fff" fill-rule="evenodd"/><path d="M489.22,127.09,405.84,45.54A102.79,102.79,0,0,0,333.64,16H160a102.62,102.62,0,0,0-72.2,29.5L4.34,127.09a14.45,14.45,0,0,0-.58,20L58.32,207a14.57,14.57,0,0,0,19.57,1.73l33.84-26.22,3.47,228.27a14.47,14.47,0,0,0,14.46,14.27H364.1a14.47,14.47,0,0,0,14.46-14.27L382,182.52l33.83,26.22A14.47,14.47,0,0,0,435.43,207L490,147.14a14.65,14.65,0,0,0-.77-20" fill="#961229" fill-rule="evenodd"/><polygon points="138.82 421.57 163.09 421.57 163.09 17.42 138.82 20.23 138.82 421.57" fill="#03714d" fill-rule="evenodd"/><rect x="163.09" y="17.42" width="7.38" height="404.15" fill="#fff"/><polygon points="131.45 421.57 138.82 421.57 138.82 20.23 131.45 22.55 131.45 421.57" fill="#fff" fill-rule="evenodd"/><rect x="202.1" y="18.22" width="24.26" height="403.35" fill="#03714d"/><rect x="226.36" y="18.22" width="7.38" height="403.35" fill="#fff"/><rect x="194.72" y="18.22" width="7.38" height="403.35" fill="#fff"/><rect x="267.23" y="18.22" width="24.26" height="403.35" fill="#03714d"/><rect x="291.49" y="18.22" width="7.38" height="403.35" fill="#fff"/><rect x="259.86" y="18.22" width="7.38" height="403.35" fill="#fff"/><polygon points="330.51 421.57 354.77 421.57 354.77 20.17 330.51 18.22 330.51 421.57" fill="#03714d" fill-rule="evenodd"/><polygon points="354.77 421.57 362.14 421.57 362.14 22.25 354.77 20.17 354.77 421.57" fill="#fff" fill-rule="evenodd"/><rect x="323.13" y="18.22" width="7.38" height="403.35" fill="#fff"/><path d="M257.76,203.08q-1.87,2.38-6.88,4.42a32.32,32.32,0,0,1-12.16,2A41.31,41.31,0,0,1,225,207.33a30.13,30.13,0,0,1-11.22-6.88,32.56,32.56,0,0,1-7.65-12,49.41,49.41,0,0,1-2.81-17.68,45.84,45.84,0,0,1,3.4-18.27A38.06,38.06,0,0,1,216,139.25a39.21,39.21,0,0,1,13.68-8.08,50.44,50.44,0,0,1,16.66-2.72q21.42,0,32.64,12.24t11.22,37.06a95,95,0,0,1-3.91,27.37,68.34,68.34,0,0,1-12.15,23.38,66.43,66.43,0,0,1-21.08,17.08q-12.84,6.79-30.52,8.33a12.87,12.87,0,0,1-2.55-4.84,26.33,26.33,0,0,1-1.19-8.42,47.26,47.26,0,0,1,.51-7.31,23.36,23.36,0,0,1,1.36-5.27,53.43,53.43,0,0,0,12.58-2.46,47.69,47.69,0,0,0,10.88-5.1,37.69,37.69,0,0,0,8.59-7.48,30.87,30.87,0,0,0,5.52-9.61ZM246.2,186.93a13.93,13.93,0,0,0,10.54-4.25q4.08-4.25,4.08-12.41,0-9-3.91-13.6a12.58,12.58,0,0,0-10-4.59,14.12,14.12,0,0,0-10.37,4.25q-4.24,4.26-4.25,13.09,0,9.18,4,13.35A13.18,13.18,0,0,0,246.2,186.93Z" fill="#fff" stroke="#961229" stroke-miterlimit="10" stroke-width="5"/><polygon points="460.36 171.46 481.37 148.74 389.73 62.61 389.73 104.65 460.36 171.46" fill="#03714d" fill-rule="evenodd"/><polygon points="455.37 176.88 460.36 171.46 383.73 98.92 383.85 109.47 455.37 176.88" fill="#fff" fill-rule="evenodd"/><polygon points="481.37 148.74 486.44 143.37 383.73 47.12 383.85 57.68 481.37 148.74" fill="#fff" fill-rule="evenodd"/><polygon points="433.94 201.31 439 195.95 383.73 150.06 383.85 160.61 433.94 201.31" fill="#fff" fill-rule="evenodd"/><polygon points="382.03 177.57 382.03 31.98 389.73 37.91 389.73 183.54 382.03 177.57" fill="#fff" fill-rule="evenodd"/><polygon points="32.94 172.24 11.93 149.51 103.57 63.39 103.57 105.43 32.94 172.24" fill="#03714d" fill-rule="evenodd"/><polygon points="37.93 177.66 32.94 172.24 109.57 99.69 109.45 110.25 37.93 177.66" fill="#fff" fill-rule="evenodd"/><polygon points="11.93 149.51 6.86 144.15 109.57 47.9 109.45 58.45 11.93 149.51" fill="#fff" fill-rule="evenodd"/><polygon points="59.36 202.09 54.3 196.72 109.57 150.84 109.45 161.39 59.36 202.09" fill="#fff" fill-rule="evenodd"/><polygon points="111.27 178.35 111.27 32.76 103.57 38.69 103.57 184.32 111.27 178.35" fill="#fff" fill-rule="evenodd"/></svg>