<svg xmlns="http://www.w3.org/2000/svg" xmlns:xlink="http://www.w3.org/1999/xlink" width="503.01" height="426" viewBox="0 0 503.01 426"><defs><clipPath id="a"><path d="M9.14,128.32,12,125.47l72.6,79-5.28,3.88a7.39,7.39,0,0,1-3.27,1.19h0A14.17,14.17,0,0,1,64.9,206c-.85-.78-1.69-1.64-2.57-2.58l-52.64-57c-1.94-2.14-3.46-4.32-3.81-7.19h0A14,14,0,0,1,9.14,128.32Z" fill="none"/></clipPath><clipPath id="b"><path d="M9.14,128.32,12,125.47l72.6,79-5.28,3.88a7.39,7.39,0,0,1-3.27,1.19h0A14.17,14.17,0,0,1,64.9,206c-.85-.78-1.69-1.64-2.57-2.58l-52.64-57c-1.94-2.14-3.46-4.32-3.81-7.19h0A14,14,0,0,1,9.14,128.32Z" fill="#fff" clip-rule="evenodd"/></clipPath><clipPath id="c"><rect x="3.13" width="497" height="426" fill="#fff"/></clipPath><clipPath id="e"><path d="M493.88,128.32,491,125.47l-72.59,79,5.27,3.88a7.39,7.39,0,0,0,3.27,1.19h0A14.16,14.16,0,0,0,438.11,206c.85-.78,1.69-1.64,2.57-2.58l52.64-57c1.95-2.14,3.47-4.32,3.82-7.19h0A14,14,0,0,0,493.88,128.32Z" fill="none"/></clipPath><clipPath id="f"><path d="M493.88,128.32,491,125.47l-72.59,79,5.27,3.88a7.39,7.39,0,0,0,3.27,1.19h0A14.16,14.16,0,0,0,438.11,206c.85-.78,1.69-1.64,2.57-2.58l52.64-57c1.95-2.14,3.47-4.32,3.82-7.19h0A14,14,0,0,0,493.88,128.32Z" fill="#fff" clip-rule="evenodd"/></clipPath><clipPath id="g"><rect x="2.88" width="497" height="426" fill="#fff"/></clipPath></defs><title>Asset 13</title><path d="M493.93,126.26,410.54,44.7a102.75,102.75,0,0,0-72.2-29.49H164.73A102.57,102.57,0,0,0,92.53,44.7L9.05,126.26a14.44,14.44,0,0,0-.58,20L63,206.17A14.57,14.57,0,0,0,82.6,207.9l33.83-26.22L119.9,410a14.47,14.47,0,0,0,14.46,14.27H368.8A14.46,14.46,0,0,0,383.26,410l3.47-228.27,33.84,26.22a14.47,14.47,0,0,0,19.57-1.73l54.56-59.86a14.65,14.65,0,0,0-.77-20" fill="#124423" fill-rule="evenodd"/><path d="M493.93,126.26,410.54,44.7a102.75,102.75,0,0,0-72.2-29.49H164.73A102.57,102.57,0,0,0,92.53,44.7L9.05,126.26a14.44,14.44,0,0,0-.58,20L63,206.17A14.57,14.57,0,0,0,82.6,207.9l33.83-26.22L119.9,410a14.47,14.47,0,0,0,14.46,14.27H368.8A14.46,14.46,0,0,0,383.26,410l3.47-228.27,33.84,26.22a14.47,14.47,0,0,0,19.57-1.73l54.56-59.86a14.65,14.65,0,0,0-.77-20" fill="none" stroke="#2d824f" stroke-miterlimit="10" stroke-width="2" fill-rule="evenodd"/><path d="M9.14,128.32,12,125.47l72.6,79-5.28,3.88a7.39,7.39,0,0,1-3.27,1.19h0A14.17,14.17,0,0,1,64.9,206c-.85-.78-1.69-1.64-2.57-2.58l-52.64-57c-1.94-2.14-3.46-4.32-3.81-7.19h0A14,14,0,0,1,9.14,128.32Z" fill="#fff" fill-rule="evenodd"/><g clip-path="url(#b)"><rect x="3.13" width="497" height="426" fill="#fff"/><g clip-path="url(#c)"><rect y="120.1" width="89.85" height="95.66" fill="#fff"/></g></g><path d="M493.88,128.32,491,125.47l-72.59,79,5.27,3.88a7.39,7.39,0,0,0,3.27,1.19h0A14.16,14.16,0,0,0,438.11,206c.85-.78,1.69-1.64,2.57-2.58l52.64-57c1.95-2.14,3.47-4.32,3.82-7.19h0A14,14,0,0,0,493.88,128.32Z" fill="#fff" fill-rule="evenodd"/><g clip-path="url(#f)"><rect x="2.88" width="497" height="426" fill="#fff"/><g clip-path="url(#g)"><rect x="413.16" y="120.1" width="89.85" height="95.66" fill="#fff"/></g></g><path d="M223.24,118.52h55.28q8,0,11.54,2.49t3.57,8.21q0,3.5-4.2,9.22t-9.54,12.66a135.69,135.69,0,0,0-11,17.22,141.14,141.14,0,0,0-10.42,25.15,109.22,109.22,0,0,0-2.82,10.88q-.83,4.31-1.83,11.2T252,226.09q-1.74,8.47-4.94,11.75a11.37,11.37,0,0,1-8.51,3.28,10.25,10.25,0,0,1-8.13-3.53q-3.08-3.53-3.07-10.42a64.13,64.13,0,0,1,2.24-14.44,171.83,171.83,0,0,1,7.3-21.87A212.94,212.94,0,0,1,267.65,138H223.24q-7,0-10.42-2.53t-3.45-7.93q0-5.73,3.66-7.38T223.24,118.52Z" fill="#fff"/></svg>